<?xml version="1.0" encoding="UTF-8"?>
<!DOCTYPE svg PUBLIC "-//W3C//DTD SVG 1.1//EN" "http://www.w3.org/Graphics/SVG/1.1/DTD/svg11.dtd">
<svg xmlns="http://www.w3.org/2000/svg" version="1.1" width="164px" height="144px" style="shape-rendering:geometricPrecision; text-rendering:geometricPrecision; image-rendering:optimizeQuality; fill-rule:evenodd; clip-rule:evenodd" xmlns:xlink="http://www.w3.org/1999/xlink">
<g><path style="opacity:1" fill="#fefefe" d="M -0.5,-0.5 C 3.83333,-0.5 8.16667,-0.5 12.5,-0.5C 8.19268,3.47183 3.85934,7.47183 -0.5,11.5C -0.5,7.5 -0.5,3.5 -0.5,-0.5 Z"/></g>
<g><path style="opacity:1" fill="#010101" d="M 12.5,-0.5 C 58.1667,-0.5 103.833,-0.5 149.5,-0.5C 152.835,2.6005 156.335,5.6005 160,8.5C 160.941,10.7274 162.108,12.7274 163.5,14.5C 163.5,52.1667 163.5,89.8333 163.5,127.5C 159.959,133.715 155.293,139.048 149.5,143.5C 104.5,143.5 59.5,143.5 14.5,143.5C 12.0578,141.774 9.39115,140.274 6.5,139C 4.66708,136.002 2.33375,133.502 -0.5,131.5C -0.5,91.5 -0.5,51.5 -0.5,11.5C 3.85934,7.47183 8.19268,3.47183 12.5,-0.5 Z"/></g>
<g><path style="opacity:1" fill="#fefefe" d="M 149.5,-0.5 C 154.167,-0.5 158.833,-0.5 163.5,-0.5C 163.5,4.5 163.5,9.5 163.5,14.5C 162.108,12.7274 160.941,10.7274 160,8.5C 156.335,5.6005 152.835,2.6005 149.5,-0.5 Z"/></g>
<g><path style="opacity:1" fill="#fbfbfb" d="M 15.5,3.5 C 59.1679,3.33334 102.835,3.50001 146.5,4C 150.737,7.06906 154.071,10.9024 156.5,15.5C 157.833,52.8333 157.833,90.1667 156.5,127.5C 153.813,132.187 150.146,135.854 145.5,138.5C 102.167,139.833 58.8333,139.833 15.5,138.5C 11.5,136.5 8.5,133.5 6.5,129.5C 5.16667,90.1667 5.16667,50.8333 6.5,11.5C 9.22253,8.43964 12.2225,5.77297 15.5,3.5 Z"/></g>
<g><path style="opacity:1" fill="#b8b8b8" d="M 71.5,41.5 C 70.8333,41.5 70.1667,41.5 69.5,41.5C 61.5,41.5 53.5,41.5 45.5,41.5C 49.4451,40.1745 53.7784,39.5079 58.5,39.5C 63.2216,39.5079 67.5549,40.1745 71.5,41.5 Z"/></g>
<g><path style="opacity:1" fill="#7b7b7b" d="M 43.5,41.5 C 42.0821,43.3079 40.0821,43.9746 37.5,43.5C 38.9179,41.6921 40.9179,41.0254 43.5,41.5 Z"/></g>
<g><path style="opacity:1" fill="#080808" d="M 43.5,41.5 C 44.1667,41.5 44.8333,41.5 45.5,41.5C 53.5,41.5 61.5,41.5 69.5,41.5C 69.5,49.5 69.5,57.5 69.5,65.5C 62.4163,64.8745 55.7496,65.5411 49.5,67.5C 48.2652,67.7214 47.2652,68.3881 46.5,69.5C 45.501,81.4815 45.1677,93.4815 45.5,105.5C 37.5,105.5 29.5,105.5 21.5,105.5C 21.5,104.167 21.5,102.833 21.5,101.5C 23.4791,89.8799 24.1458,77.8799 23.5,65.5C 23.667,55.1388 28.3336,47.8055 37.5,43.5C 40.0821,43.9746 42.0821,43.3079 43.5,41.5 Z"/></g>
<g><path style="opacity:1" fill="#0a0707" d="M 115.5,41.5 C 116.183,43.1765 117.517,43.8432 119.5,43.5C 123.5,45.5 127.5,47.5 131.5,49.5C 130.167,51.5 128.833,53.5 127.5,55.5C 125.5,56.1667 124.167,57.5 123.5,59.5C 121.718,60.7196 119.718,61.3862 117.5,61.5C 96.6081,57.7406 89.6081,66.0739 96.5,86.5C 104.423,92.615 112.423,92.9483 120.5,87.5C 123.197,90.5315 126.197,93.1982 129.5,95.5C 130.167,96.8333 130.833,98.1667 131.5,99.5C 130.167,99.5 129.5,100.167 129.5,101.5C 124.997,103.89 120.331,105.89 115.5,107.5C 111.5,107.5 107.5,107.5 103.5,107.5C 89.049,104.719 80.049,96.0528 76.5,81.5C 75.5067,76.8804 75.1734,72.2137 75.5,67.5C 77.1765,66.8166 77.8432,65.4832 77.5,63.5C 81.0588,53.6064 87.7254,46.6064 97.5,42.5C 103.463,41.5041 109.463,41.1707 115.5,41.5 Z"/></g>
<g><path style="opacity:1" fill="#616864" d="M 115.5,41.5 C 117.483,41.1568 118.817,41.8235 119.5,43.5C 117.517,43.8432 116.183,43.1765 115.5,41.5 Z"/></g>
<g><path style="opacity:1" fill="#333333" d="M 63.5,51.5 C 58.8333,51.5 54.1667,51.5 49.5,51.5C 51.3972,50.1952 53.7305,49.5286 56.5,49.5C 59.2695,49.5286 61.6028,50.1952 63.5,51.5 Z"/></g>
<g><path style="opacity:1" fill="#eeeeee" d="M 49.5,51.5 C 54.1667,51.5 58.8333,51.5 63.5,51.5C 63.5,52.8333 63.5,54.1667 63.5,55.5C 58.8333,55.5 54.1667,55.5 49.5,55.5C 49.5,54.1667 49.5,52.8333 49.5,51.5 Z"/></g>
<g><path style="opacity:1" fill="#e6e6e6" d="M 38.5,53.5 C 40.1667,53.5 41.8333,53.5 43.5,53.5C 41.9248,59.7418 37.9248,63.0751 31.5,63.5C 31.238,62.0222 31.5713,60.6888 32.5,59.5C 34.6174,57.4497 36.6174,55.4497 38.5,53.5 Z"/></g>
<g><path style="opacity:1" fill="#b73a3c" d="M 131.5,49.5 C 134.088,51.0798 136.422,53.0798 138.5,55.5C 139.716,58.6329 141.383,61.2995 143.5,63.5C 144.126,70.5837 143.459,77.2504 141.5,83.5C 142.397,78.8602 142.564,74.1935 142,69.5C 141.414,66.9807 140.247,64.9807 138.5,63.5C 138.5,61.5 138.5,59.5 138.5,57.5C 136.007,57.0238 134.007,55.6904 132.5,53.5C 131.15,54.9501 129.484,55.6168 127.5,55.5C 128.833,53.5 130.167,51.5 131.5,49.5 Z"/></g>
<g><path style="opacity:1" fill="#f5f4f4" d="M 117.5,61.5 C 118.183,63.1765 119.517,63.8432 121.5,63.5C 121.157,65.4832 121.824,66.8166 123.5,67.5C 123.5,68.8333 123.5,70.1667 123.5,71.5C 123.5,74.1667 123.5,76.8333 123.5,79.5C 122.974,82.3539 121.974,85.0206 120.5,87.5C 112.423,92.9483 104.423,92.615 96.5,86.5C 89.6081,66.0739 96.6081,57.7406 117.5,61.5 Z"/></g>
<g><path style="opacity:1" fill="#a44548" d="M 123.5,59.5 C 122.286,62.1293 122.286,64.796 123.5,67.5C 121.824,66.8166 121.157,65.4832 121.5,63.5C 119.517,63.8432 118.183,63.1765 117.5,61.5C 119.718,61.3862 121.718,60.7196 123.5,59.5 Z"/></g>
<g><path style="opacity:1" fill="#c42a31" d="M 127.5,55.5 C 126.497,58.3338 125.497,61.1671 124.5,64C 125.718,67.4059 126.718,70.9059 127.5,74.5C 127.444,76.6397 126.777,78.3064 125.5,79.5C 126.036,76.3019 125.369,73.6353 123.5,71.5C 123.5,70.1667 123.5,68.8333 123.5,67.5C 122.286,64.796 122.286,62.1293 123.5,59.5C 124.167,57.5 125.5,56.1667 127.5,55.5 Z"/></g>
<g><path style="opacity:1" fill="#929292" d="M 69.5,41.5 C 70.1667,41.5 70.8333,41.5 71.5,41.5C 71.5,50.1667 71.5,58.8333 71.5,67.5C 64.1667,67.5 56.8333,67.5 49.5,67.5C 55.7496,65.5411 62.4163,64.8745 69.5,65.5C 69.5,57.5 69.5,49.5 69.5,41.5 Z"/></g>
<g><path style="opacity:1" fill="#8e8e8e" d="M 77.5,63.5 C 77.8432,65.4832 77.1765,66.8166 75.5,67.5C 75.1568,65.5168 75.8235,64.1834 77.5,63.5 Z"/></g>
<g><path style="opacity:1" fill="#6f6f6f" d="M 35.5,71.5 C 34.1667,71.5 32.8333,71.5 31.5,71.5C 31.62,70.4138 32.2867,69.7472 33.5,69.5C 34.7133,69.7472 35.38,70.4138 35.5,71.5 Z"/></g>
<g><path style="opacity:1" fill="#fafafa" d="M 31.5,71.5 C 32.8333,71.5 34.1667,71.5 35.5,71.5C 35.5,74.8333 35.5,78.1667 35.5,81.5C 34.1667,81.5 32.8333,81.5 31.5,81.5C 31.5,78.1667 31.5,74.8333 31.5,71.5 Z"/></g>
<g><path style="opacity:1" fill="#242424" d="M 23.5,65.5 C 24.1458,77.8799 23.4791,89.8799 21.5,101.5C 20.8542,89.1201 21.5209,77.1201 23.5,65.5 Z"/></g>
<g><path style="opacity:1" fill="#828282" d="M 35.5,71.5 C 36.7773,72.6936 37.4439,74.3603 37.5,76.5C 37.4439,78.6397 36.7773,80.3064 35.5,81.5C 35.5,78.1667 35.5,74.8333 35.5,71.5 Z"/></g>
<g><path style="opacity:1" fill="#f29b9d" d="M 123.5,71.5 C 125.369,73.6353 126.036,76.3019 125.5,79.5C 124.833,79.5 124.167,79.5 123.5,79.5C 123.5,76.8333 123.5,74.1667 123.5,71.5 Z"/></g>
<g><path style="opacity:1" fill="#fadfe0" d="M 143.5,63.5 C 145.468,71.4329 146.135,79.7663 145.5,88.5C 144.5,88.5 143.5,88.5 142.5,88.5C 142.356,97.1736 138.022,101.507 129.5,101.5C 129.5,100.167 130.167,99.5 131.5,99.5C 133.5,98.8333 134.833,97.5 135.5,95.5C 136.833,95.5 137.5,94.8333 137.5,93.5C 140.363,90.9392 141.696,87.6058 141.5,83.5C 143.459,77.2504 144.126,70.5837 143.5,63.5 Z"/></g>
<g><path style="opacity:1" fill="#f61d25" d="M 138.5,63.5 C 140.172,69.7276 140.672,76.0609 140,82.5C 138.17,84.1581 136.836,86.1581 136,88.5C 135.506,90.1341 135.34,91.8008 135.5,93.5C 131.926,94.0921 129.926,92.5921 129.5,89C 128.207,88.51 126.873,88.3433 125.5,88.5C 124.266,85.5352 124.266,82.5352 125.5,79.5C 126.777,78.3064 127.444,76.6397 127.5,74.5C 126.718,70.9059 125.718,67.4059 124.5,64C 125.497,61.1671 126.497,58.3338 127.5,55.5C 129.484,55.6168 131.15,54.9501 132.5,53.5C 134.007,55.6904 136.007,57.0238 138.5,57.5C 138.5,59.5 138.5,61.5 138.5,63.5 Z"/></g>
<g><path style="opacity:1" fill="#ac3033" d="M 123.5,79.5 C 124.167,79.5 124.833,79.5 125.5,79.5C 124.266,82.5352 124.266,85.5352 125.5,88.5C 126.105,90.0257 127.271,91.0257 129,91.5C 129.49,92.7932 129.657,94.1266 129.5,95.5C 126.197,93.1982 123.197,90.5315 120.5,87.5C 121.974,85.0206 122.974,82.3539 123.5,79.5 Z"/></g>
<g><path style="opacity:1" fill="#bf454a" d="M 141.5,83.5 C 141.696,87.6058 140.363,90.9392 137.5,93.5C 137.752,89.6733 139.085,86.3399 141.5,83.5 Z"/></g>
<g><path style="opacity:1" fill="#fbfbfb" d="M 35.5,89.5 C 35.5,92.8333 35.5,96.1667 35.5,99.5C 34.1667,99.5 32.8333,99.5 31.5,99.5C 31.5,96.1667 31.5,92.8333 31.5,89.5C 32.8333,89.5 34.1667,89.5 35.5,89.5 Z"/></g>
<g><path style="opacity:1" fill="#d62024" d="M 138.5,63.5 C 140.247,64.9807 141.414,66.9807 142,69.5C 142.564,74.1935 142.397,78.8602 141.5,83.5C 139.085,86.3399 137.752,89.6733 137.5,93.5C 137.5,94.8333 136.833,95.5 135.5,95.5C 133.5,95.5 131.5,95.5 129.5,95.5C 129.657,94.1266 129.49,92.7932 129,91.5C 127.271,91.0257 126.105,90.0257 125.5,88.5C 126.873,88.3433 128.207,88.51 129.5,89C 129.926,92.5921 131.926,94.0921 135.5,93.5C 135.34,91.8008 135.506,90.1341 136,88.5C 136.836,86.1581 138.17,84.1581 140,82.5C 140.672,76.0609 140.172,69.7276 138.5,63.5 Z"/></g>
<g><path style="opacity:1" fill="#858585" d="M 35.5,89.5 C 36.7773,90.6936 37.4439,92.3603 37.5,94.5C 37.4439,96.6397 36.7773,98.3064 35.5,99.5C 35.5,96.1667 35.5,92.8333 35.5,89.5 Z"/></g>
<g><path style="opacity:1" fill="#992d3b" d="M 129.5,95.5 C 131.5,95.5 133.5,95.5 135.5,95.5C 134.833,97.5 133.5,98.8333 131.5,99.5C 130.833,98.1667 130.167,96.8333 129.5,95.5 Z"/></g>
<g><path style="opacity:1" fill="#a3a2a3" d="M 103.5,107.5 C 107.5,107.5 111.5,107.5 115.5,107.5C 113.952,108.794 111.952,109.461 109.5,109.5C 107.048,109.461 105.048,108.794 103.5,107.5 Z"/></g>
<g><path style="opacity:1" fill="#fefefe" d="M 163.5,127.5 C 163.5,132.833 163.5,138.167 163.5,143.5C 158.833,143.5 154.167,143.5 149.5,143.5C 155.293,139.048 159.959,133.715 163.5,127.5 Z"/></g>
<g><path style="opacity:1" fill="#fdfefd" d="M -0.5,131.5 C 2.33375,133.502 4.66708,136.002 6.5,139C 9.39115,140.274 12.0578,141.774 14.5,143.5C 9.5,143.5 4.5,143.5 -0.5,143.5C -0.5,139.5 -0.5,135.5 -0.5,131.5 Z"/></g>
</svg>
